<svg width="24" height="24" viewBox="0 0 24 24" fill="none" xmlns="http://www.w3.org/2000/svg">
<path fill-rule="evenodd" clip-rule="evenodd" d="M17.781 6.21888C17.8508 6.28854 17.9062 6.37131 17.944 6.46243C17.9818 6.55354 18.0013 6.65122 18.0013 6.74988C18.0013 6.84853 17.9818 6.94621 17.944 7.03733C17.9062 7.12844 17.8508 7.21121 17.781 7.28088L7.28097 17.7809C7.14014 17.9217 6.94913 18.0008 6.74997 18.0008C6.55081 18.0008 6.3598 17.9217 6.21897 17.7809C6.07814 17.64 5.99902 17.449 5.99902 17.2499C5.99902 17.0507 6.07814 16.8597 6.21897 16.7189L16.719 6.21888C16.7886 6.14903 16.8714 6.09362 16.9625 6.05581C17.0536 6.018 17.1513 5.99854 17.25 5.99854C17.3486 5.99854 17.4463 6.018 17.5374 6.05581C17.6285 6.09362 17.7113 6.14903 17.781 6.21888Z" fill="black"/>
<path fill-rule="evenodd" clip-rule="evenodd" d="M6.21936 6.21888C6.14952 6.28854 6.0941 6.37131 6.0563 6.46243C6.01849 6.55354 5.99902 6.65122 5.99902 6.74988C5.99902 6.84853 6.01849 6.94621 6.0563 7.03733C6.0941 7.12844 6.14952 7.21121 6.21936 7.28088L16.7194 17.7809C16.8602 17.9217 17.0512 18.0008 17.2504 18.0008C17.4495 18.0008 17.6405 17.9217 17.7814 17.7809C17.9222 17.64 18.0013 17.449 18.0013 17.2499C18.0013 17.0507 17.9222 16.8597 17.7814 16.7189L7.28136 6.21888C7.2117 6.14903 7.12893 6.09362 7.03781 6.05581C6.9467 6.018 6.84902 5.99854 6.75036 5.99854C6.65171 5.99854 6.55403 6.018 6.46291 6.05581C6.3718 6.09362 6.28903 6.14903 6.21936 6.21888Z" fill="black"/>
</svg>
