<svg width="24" height="25" viewBox="0 0 24 25" fill="none" xmlns="http://www.w3.org/2000/svg">
<path fill-rule="evenodd" clip-rule="evenodd" d="M7.5 17.5249C7.5 17.326 7.57902 17.1352 7.71967 16.9946C7.86032 16.8539 8.05109 16.7749 8.25 16.7749H21.75C21.9489 16.7749 22.1397 16.8539 22.2803 16.9946C22.421 17.1352 22.5 17.326 22.5 17.5249C22.5 17.7238 22.421 17.9146 22.2803 18.0552C22.1397 18.1959 21.9489 18.2749 21.75 18.2749H8.25C8.05109 18.2749 7.86032 18.1959 7.71967 18.0552C7.57902 17.9146 7.5 17.7238 7.5 17.5249ZM7.5 11.5249C7.5 11.326 7.57902 11.1352 7.71967 10.9946C7.86032 10.8539 8.05109 10.7749 8.25 10.7749H21.75C21.9489 10.7749 22.1397 10.8539 22.2803 10.9946C22.421 11.1352 22.5 11.326 22.5 11.5249C22.5 11.7238 22.421 11.9146 22.2803 12.0552C22.1397 12.1959 21.9489 12.2749 21.75 12.2749H8.25C8.05109 12.2749 7.86032 12.1959 7.71967 12.0552C7.57902 11.9146 7.5 11.7238 7.5 11.5249ZM7.5 5.5249C7.5 5.32599 7.57902 5.13522 7.71967 4.99457C7.86032 4.85392 8.05109 4.7749 8.25 4.7749H21.75C21.9489 4.7749 22.1397 4.85392 22.2803 4.99457C22.421 5.13522 22.5 5.32599 22.5 5.5249C22.5 5.72381 22.421 5.91458 22.2803 6.05523C22.1397 6.19588 21.9489 6.2749 21.75 6.2749H8.25C8.05109 6.2749 7.86032 6.19588 7.71967 6.05523C7.57902 5.91458 7.5 5.72381 7.5 5.5249ZM3 7.0249C3.39782 7.0249 3.77936 6.86687 4.06066 6.58556C4.34196 6.30426 4.5 5.92273 4.5 5.5249C4.5 5.12708 4.34196 4.74555 4.06066 4.46424C3.77936 4.18294 3.39782 4.0249 3 4.0249C2.60218 4.0249 2.22064 4.18294 1.93934 4.46424C1.65804 4.74555 1.5 5.12708 1.5 5.5249C1.5 5.92273 1.65804 6.30426 1.93934 6.58556C2.22064 6.86687 2.60218 7.0249 3 7.0249ZM3 13.0249C3.39782 13.0249 3.77936 12.8669 4.06066 12.5856C4.34196 12.3043 4.5 11.9227 4.5 11.5249C4.5 11.1271 4.34196 10.7455 4.06066 10.4642C3.77936 10.1829 3.39782 10.0249 3 10.0249C2.60218 10.0249 2.22064 10.1829 1.93934 10.4642C1.65804 10.7455 1.5 11.1271 1.5 11.5249C1.5 11.9227 1.65804 12.3043 1.93934 12.5856C2.22064 12.8669 2.60218 13.0249 3 13.0249ZM3 19.0249C3.39782 19.0249 3.77936 18.8669 4.06066 18.5856C4.34196 18.3043 4.5 17.9227 4.5 17.5249C4.5 17.1271 4.34196 16.7455 4.06066 16.4642C3.77936 16.1829 3.39782 16.0249 3 16.0249C2.60218 16.0249 2.22064 16.1829 1.93934 16.4642C1.65804 16.7455 1.5 17.1271 1.5 17.5249C1.5 17.9227 1.65804 18.3043 1.93934 18.5856C2.22064 18.8669 2.60218 19.0249 3 19.0249Z" fill="black"/>
</svg>
